<?xml version="1.0" encoding="utf-8"?>
<svg xmlns="http://www.w3.org/2000/svg" viewBox="22.259 32.9412 148.9462 191.2269" width="148.946px" height="191.227px" xmlns:bx="https://boxy-svg.com" preserveAspectRatio="none"><defs><bx:export><bx:file format="svg"/></bx:export></defs><path d="M 159.236 33.415 C 160.751 35.367 161.656 37.331 162.487 39.646 C 162.598 39.955 162.71 40.263 162.825 40.58 C 163.179 41.558 163.527 42.537 163.875 43.516 C 164.108 44.163 164.341 44.81 164.575 45.457 C 165.029 46.714 165.48 47.972 165.928 49.231 C 166.652 51.249 167.401 53.257 168.16 55.261 C 168.685 56.898 168.762 58.079 168.514 59.782 C 167.494 61.059 166.497 61.559 164.971 62.09 C 164.55 62.239 164.13 62.388 163.696 62.541 C 163.239 62.698 162.782 62.855 162.311 63.017 C 161.834 63.185 161.357 63.352 160.865 63.525 C 159.306 64.072 157.745 64.612 156.185 65.153 C 155.108 65.53 154.032 65.906 152.956 66.283 C 150.819 67.032 148.681 67.779 146.543 68.524 C 142.843 69.814 139.153 71.13 135.463 72.447 C 129.798 74.461 124.118 76.43 118.432 78.385 C 105.251 82.916 92.083 87.487 78.941 92.131 C 77.914 92.494 76.886 92.857 75.858 93.22 C 74.429 93.724 73 94.23 71.571 94.736 C 71.152 94.884 70.733 95.032 70.301 95.184 C 68.005 96 65.762 96.882 63.533 97.868 C 63.936 98.251 64.339 98.633 64.754 99.028 C 65.975 100.31 65.975 100.31 65.975 101.286 C 66.472 101.284 66.969 101.282 67.481 101.281 C 79.581 101.237 91.68 101.205 103.78 101.185 C 109.631 101.175 115.482 101.161 121.333 101.139 C 126.433 101.119 131.534 101.107 136.634 101.102 C 139.334 101.1 142.034 101.094 144.735 101.08 C 147.277 101.066 149.819 101.062 152.362 101.065 C 153.294 101.065 154.226 101.061 155.159 101.053 C 156.434 101.043 157.709 101.046 158.984 101.051 C 159.534 101.043 159.534 101.043 160.095 101.034 C 163.184 101.069 165.69 102.067 168.037 104.092 C 168.255 104.364 168.472 104.637 168.697 104.918 C 168.922 105.189 169.148 105.46 169.38 105.74 C 170.951 108.147 171.097 110.38 171.086 113.193 C 171.088 113.604 171.09 114.015 171.092 114.439 C 171.099 115.815 171.098 117.192 171.097 118.569 C 171.1 119.556 171.103 120.544 171.107 121.531 C 171.116 124.214 171.118 126.896 171.118 129.579 C 171.119 131.256 171.121 132.933 171.124 134.61 C 171.133 140.464 171.137 146.318 171.136 152.171 C 171.136 157.622 171.146 163.073 171.161 168.524 C 171.174 173.208 171.179 177.891 171.179 182.574 C 171.178 185.37 171.181 188.165 171.192 190.961 C 171.201 193.593 171.201 196.224 171.194 198.856 C 171.193 199.819 171.195 200.782 171.201 201.745 C 171.238 208.194 171.131 213.621 166.502 218.594 C 160.203 224.473 153.797 224.197 145.632 224.153 C 144.452 224.155 143.271 224.159 142.091 224.163 C 139.229 224.172 136.367 224.168 133.505 224.159 C 131.177 224.153 128.85 224.151 126.522 224.152 C 126.19 224.153 125.857 224.153 125.515 224.153 C 124.839 224.154 124.164 224.154 123.489 224.155 C 117.528 224.159 111.568 224.151 105.608 224.136 C 99.835 224.122 94.062 224.119 88.289 224.126 C 81.99 224.134 75.691 224.136 69.392 224.128 C 68.719 224.127 68.046 224.126 67.374 224.125 C 67.043 224.125 66.712 224.124 66.371 224.124 C 64.048 224.121 61.725 224.123 59.402 224.126 C 56.272 224.13 53.141 224.124 50.011 224.11 C 48.864 224.107 47.718 224.107 46.571 224.11 C 45.002 224.115 43.432 224.107 41.863 224.096 C 41.413 224.1 40.964 224.104 40.5 224.108 C 35.601 224.046 30.933 222.434 27.4 218.962 C 23.392 214.372 22.29 209.427 22.328 203.442 C 22.326 202.941 22.323 202.439 22.32 201.922 C 22.313 200.256 22.317 198.591 22.32 196.925 C 22.318 195.725 22.314 194.525 22.31 193.324 C 22.302 190.412 22.301 187.499 22.304 184.587 C 22.306 182.218 22.305 179.85 22.303 177.481 C 22.302 177.143 22.302 176.805 22.302 176.457 C 22.301 175.77 22.3 175.084 22.299 174.397 C 22.293 167.968 22.295 161.539 22.301 155.111 C 22.306 149.237 22.299 143.363 22.288 137.489 C 22.276 131.447 22.271 125.405 22.274 119.363 C 22.276 115.975 22.275 112.587 22.266 109.199 C 22.258 106.014 22.261 102.829 22.27 99.644 C 22.272 98.477 22.27 97.309 22.265 96.142 C 22.259 94.546 22.264 92.95 22.273 91.353 C 22.268 90.894 22.264 90.435 22.259 89.962 C 22.297 86.493 22.945 83.029 25.279 80.332 C 27.161 78.562 29.22 77.63 31.644 76.826 C 32.012 76.697 32.379 76.568 32.757 76.435 C 33.991 76.004 35.227 75.584 36.464 75.163 C 37.363 74.851 38.262 74.537 39.161 74.223 C 41.149 73.529 43.138 72.839 45.127 72.15 C 48.594 70.948 52.051 69.72 55.507 68.489 C 56.126 68.269 56.746 68.048 57.365 67.828 C 58.309 67.491 59.253 67.155 60.197 66.819 C 71.704 62.72 83.226 58.664 94.755 54.625 C 105.032 51.024 115.3 47.398 125.563 43.756 C 129.214 42.461 132.867 41.168 136.52 39.877 C 138.145 39.303 139.769 38.728 141.394 38.153 C 142.436 37.785 143.478 37.417 144.519 37.049 C 145.958 36.541 147.397 36.032 148.836 35.523 C 149.261 35.372 149.687 35.222 150.125 35.068 C 151.691 34.513 153.242 33.96 154.773 33.314 C 156.435 32.698 157.556 32.926 159.236 33.415 Z M 134.242 46.968 C 133.681 47.172 133.136 47.37 132.591 47.567 C 131.974 47.789 131.375 48.005 130.777 48.22 C 129.837 48.57 128.898 48.919 127.955 49.258 C 125.178 50.249 122.462 51.033 120.174 52.946 C 122.196 54.351 124.221 55.749 126.255 57.136 C 127.087 57.702 127.919 58.268 128.749 58.836 C 129.965 59.682 131.18 60.527 132.405 61.359 C 132.802 61.628 133.188 61.888 133.573 62.149 C 134.624 62.891 135.67 63.597 136.778 64.249 C 138.456 64.965 138.456 64.965 142.903 63.673 C 143.517 63.465 144.112 63.263 144.708 63.061 C 145.701 62.727 146.695 62.392 147.686 62.054 C 148.373 61.819 149.06 61.586 149.748 61.353 C 151.773 60.67 153.796 59.984 155.818 59.294 C 155.818 58.962 155.818 58.64 155.818 58.317 C 154.987 57.698 154.149 57.085 153.288 56.507 C 152.73 56.141 152.73 56.141 152.183 55.782 C 151.418 55.275 150.652 54.769 149.887 54.263 C 148.672 53.469 147.459 52.673 146.251 51.868 C 145.466 51.344 144.679 50.822 143.89 50.303 C 143.503 50.049 143.128 49.803 142.753 49.557 C 142.049 49.085 141.341 48.619 140.63 48.158 C 138.427 46.834 136.798 46.361 134.242 46.968 Z M 95.08 61.128 C 94.5 61.332 93.937 61.53 93.374 61.728 C 92.748 61.944 92.123 62.162 91.498 62.38 C 90.528 62.73 89.559 63.08 88.586 63.418 C 85.768 64.39 82.939 65.156 80.623 67.106 C 82.168 68.111 83.715 69.11 85.268 70.103 C 85.998 70.569 86.729 71.035 87.459 71.501 C 88.792 72.356 90.126 73.21 91.464 74.056 C 92.154 74.492 92.154 74.492 92.83 74.919 C 93.281 75.209 93.718 75.49 94.155 75.771 C 94.587 76.041 95.005 76.304 95.424 76.567 C 95.991 76.927 95.991 76.927 96.548 77.28 C 99.021 78.486 100.828 78.442 103.431 77.573 C 103.779 77.45 104.116 77.33 104.454 77.21 C 105.553 76.837 106.652 76.462 107.748 76.079 C 108.509 75.813 109.27 75.549 110.033 75.287 C 112.277 74.522 114.518 73.748 116.756 72.966 C 116.756 72.634 116.756 72.311 116.756 71.989 C 116.409 71.765 116.073 71.548 115.736 71.33 C 114.436 70.593 113.204 69.793 111.967 68.956 C 111.373 68.554 110.777 68.154 110.181 67.755 C 109.219 67.112 108.257 66.469 107.295 65.825 C 106.339 65.175 105.383 64.525 104.42 63.884 C 104.107 63.676 103.804 63.474 103.5 63.273 C 102.938 62.886 102.373 62.505 101.804 62.131 C 99.441 60.865 97.703 60.543 95.08 61.128 Z M 52.883 75.862 C 52.54 75.998 52.208 76.13 51.876 76.262 C 49.171 77.305 46.554 78.419 44.002 79.802 C 45.267 81.125 46.649 82.27 48.061 83.433 C 49.464 84.59 50.865 85.748 52.237 86.941 C 52.552 87.218 52.857 87.487 53.163 87.755 C 53.772 88.288 54.38 88.82 54.988 89.354 C 56.026 90.281 57.063 91.149 58.162 92.009 C 59.776 92.743 59.776 92.743 62.694 91.758 C 63.032 91.638 63.361 91.521 63.69 91.404 C 64.391 91.163 65.092 90.921 65.793 90.678 C 66.894 90.289 67.995 89.901 69.098 89.521 C 69.82 89.274 70.542 89.025 71.263 88.774 C 71.614 88.651 71.955 88.532 72.296 88.413 C 73.979 87.833 75.431 87.436 76.717 86.149 C 72.67 83.486 68.601 80.856 64.483 78.305 C 63.834 77.905 63.834 77.905 63.198 77.513 C 62.031 76.775 60.865 76.059 59.659 75.387 C 57.233 74.261 55.288 74.952 52.883 75.862 Z M 33.748 90.544 C 33.597 92.09 33.54 93.057 34.236 94.45 C 35.63 95.843 36.415 96.366 38.387 96.647 C 40.443 96.354 41.23 96.074 42.537 94.45 C 42.768 92.959 42.739 91.549 42.537 90.056 C 41.869 88.72 41.869 88.72 39.607 87.614 C 36.545 87.374 35.456 87.983 33.748 90.544 Z M 34.002 111.021 C 33.866 112.956 34.124 113.817 35.243 115.446 C 36.678 116.423 36.678 116.423 38.478 116.606 C 40.378 116.391 40.789 116.226 42.11 114.866 C 43.18 113.261 43.236 112.454 43.025 110.563 C 42.306 109.124 41.44 108.51 40.096 107.634 C 37.175 107.164 34.787 107.856 34.002 111.021 Z M 53.768 111.052 C 53.737 112.822 53.737 112.822 54.256 114.47 C 55.56 116.011 56.677 116.56 58.65 116.728 C 60.358 116.637 60.358 116.637 62.068 115.141 C 63.112 113.38 63.318 112.564 63.045 110.563 C 62.325 109.124 61.46 108.51 60.115 107.634 C 56.581 107.334 55.454 107.911 53.768 111.052 Z M 39.035 124.394 C 38.773 124.62 38.519 124.84 38.265 125.059 C 37.868 125.386 37.868 125.386 37.479 125.706 C 34.889 128.845 34.499 131.543 34.476 135.515 C 34.486 136.503 34.495 137.491 34.495 138.479 C 34.49 140.311 34.492 142.142 34.503 143.973 C 34.516 145.918 34.52 147.862 34.521 149.807 C 34.523 153.065 34.53 156.324 34.545 159.582 C 34.564 163.794 34.577 168.007 34.582 172.219 C 34.586 175.872 34.593 179.524 34.602 183.177 C 34.604 183.954 34.606 184.732 34.608 185.509 C 34.613 187.765 34.618 190.021 34.629 192.277 C 34.632 192.963 34.635 193.65 34.638 194.337 C 34.64 194.989 34.641 195.642 34.642 196.294 C 34.646 196.9 34.649 197.488 34.653 198.076 C 34.667 201.434 35.597 203.645 37.654 206.267 C 41.115 209.645 41.115 209.645 51.441 209.578 C 52.472 209.571 53.503 209.569 54.534 209.572 C 57.349 209.587 60.164 209.591 62.979 209.581 C 65.973 209.569 68.967 209.568 71.961 209.571 C 76.979 209.577 81.996 209.573 87.014 209.557 C 92.85 209.539 98.686 209.53 104.523 209.541 C 110.186 209.552 115.849 209.555 121.512 209.545 C 123.912 209.541 126.312 209.537 128.713 209.54 C 131.584 209.546 134.455 209.548 137.326 209.535 C 138.387 209.529 139.447 209.524 140.508 209.52 C 146.361 209.546 151.857 210.105 156.59 206.102 C 159.6 202.966 159.893 198.77 159.923 194.651 C 159.919 193.712 159.914 192.774 159.917 191.835 C 159.926 190.092 159.929 188.349 159.924 186.606 C 159.919 184.753 159.92 182.901 159.922 181.048 C 159.926 177.939 159.925 174.831 159.918 171.722 C 159.91 168.111 159.908 164.501 159.916 160.89 C 159.923 157.76 159.926 154.629 159.923 151.499 C 159.921 149.634 159.918 147.77 159.921 145.906 C 159.926 144.13 159.929 142.355 159.922 140.579 C 159.919 139.922 159.916 139.264 159.914 138.607 C 159.94 133.373 159.76 129.086 155.906 125.161 C 152.244 121.975 152.244 121.975 140.722 122.03 C 139.719 122.035 138.716 122.036 137.713 122.034 C 134.972 122.025 132.231 122.023 129.49 122.031 C 126.577 122.039 123.663 122.04 120.75 122.039 C 115.867 122.036 110.985 122.039 106.102 122.05 C 100.422 122.063 94.743 122.07 89.063 122.064 C 83.55 122.059 78.038 122.058 72.526 122.065 C 70.19 122.068 67.854 122.071 65.518 122.069 C 62.724 122.067 59.929 122.066 57.135 122.075 C 56.104 122.079 55.073 122.082 54.042 122.085 C 52.609 122.081 51.176 122.078 49.743 122.085 C 49.085 122.089 49.085 122.089 48.44 122.093 C 44.917 122.067 42.114 122.517 39.035 124.394 Z" fill="oklch(0.68 0.14 320)" transform="matrix(1, 0, 0, 1, 2.842170943040401e-14, 1.4210854715202004e-14)"/><path d="M 84.041 138.884 C 85.594 139.553 86.983 140.444 88.405 141.356 C 88.827 141.618 89.25 141.88 89.685 142.15 C 91.063 143.007 92.435 143.875 93.807 144.743 C 94.739 145.326 95.672 145.907 96.605 146.488 C 98.55 147.7 100.491 148.916 102.432 150.135 C 104.598 151.493 106.773 152.835 108.955 154.167 C 109.24 154.342 109.526 154.516 109.82 154.696 C 111.198 155.539 112.578 156.379 113.959 157.217 C 121.448 161.792 121.448 161.792 123.104 164.274 C 123.049 167.633 123.049 167.633 121.726 169.302 C 119.572 171.312 116.919 172.715 114.406 174.223 C 113.547 174.744 112.688 175.266 111.83 175.788 C 111.244 176.145 110.657 176.501 110.07 176.857 C 107.205 178.595 104.366 180.375 101.528 182.158 C 100.57 182.755 99.612 183.352 98.653 183.949 C 96.649 185.198 94.657 186.463 92.668 187.737 C 91.664 188.37 90.66 189.002 89.656 189.634 C 89.199 189.932 88.741 190.23 88.269 190.537 C 85.561 192.227 83.825 193.01 80.623 192.595 C 78.735 191.774 77.979 191.054 77.205 189.177 C 77.078 188.212 77.078 188.212 77.071 187.182 C 77.066 186.789 77.062 186.396 77.057 185.991 C 77.056 185.565 77.056 185.138 77.056 184.698 C 77.051 184.246 77.047 183.793 77.043 183.326 C 77.031 181.829 77.027 180.332 77.024 178.835 C 77.02 177.794 77.015 176.753 77.011 175.712 C 77.003 173.529 76.999 171.346 76.997 169.163 C 76.995 166.367 76.976 163.572 76.954 160.776 C 76.94 158.626 76.936 156.475 76.935 154.325 C 76.933 153.294 76.927 152.263 76.917 151.233 C 76.904 149.79 76.906 148.349 76.913 146.906 C 76.905 146.482 76.898 146.057 76.891 145.619 C 76.915 143.549 77.058 142.221 78.383 140.58 C 80.309 138.739 81.381 138.628 84.041 138.884 Z" fill="oklch(0.65 0.1 200)" transform="matrix(1, 0, 0, 1, 2.842170943040401e-14, 1.4210854715202004e-14)"/></svg>