<?xml version="1.0" encoding="utf-8"?>
<svg xmlns="http://www.w3.org/2000/svg" viewBox="22.259 32.9412 360.122 191.2269" width="360.122px" height="191.227px" xmlns:bx="https://boxy-svg.com" preserveAspectRatio="none"><defs><bx:export><bx:file format="svg"/></bx:export></defs><path d="M 159.236 33.415 C 160.751 35.367 161.656 37.331 162.487 39.646 C 162.598 39.955 162.71 40.263 162.825 40.58 C 163.179 41.558 163.527 42.537 163.875 43.516 C 164.108 44.163 164.341 44.81 164.575 45.457 C 165.029 46.714 165.48 47.972 165.928 49.231 C 166.652 51.249 167.401 53.257 168.16 55.261 C 168.685 56.898 168.762 58.079 168.514 59.782 C 167.494 61.059 166.497 61.559 164.971 62.09 C 164.55 62.239 164.13 62.388 163.696 62.541 C 163.239 62.698 162.782 62.855 162.311 63.017 C 161.834 63.185 161.357 63.352 160.865 63.525 C 159.306 64.072 157.745 64.612 156.185 65.153 C 155.108 65.53 154.032 65.906 152.956 66.283 C 150.819 67.032 148.681 67.779 146.543 68.524 C 142.843 69.814 139.153 71.13 135.463 72.447 C 129.798 74.461 124.118 76.43 118.432 78.385 C 105.251 82.916 92.083 87.487 78.941 92.131 C 77.914 92.494 76.886 92.857 75.858 93.22 C 74.429 93.724 73 94.23 71.571 94.736 C 71.152 94.884 70.733 95.032 70.301 95.184 C 68.005 96 65.762 96.882 63.533 97.868 C 63.936 98.251 64.339 98.633 64.754 99.028 C 65.975 100.31 65.975 100.31 65.975 101.286 C 66.472 101.284 66.969 101.282 67.481 101.281 C 79.581 101.237 91.68 101.205 103.78 101.185 C 109.631 101.175 115.482 101.161 121.333 101.139 C 126.433 101.119 131.534 101.107 136.634 101.102 C 139.334 101.1 142.034 101.094 144.735 101.08 C 147.277 101.066 149.819 101.062 152.362 101.065 C 153.294 101.065 154.226 101.061 155.159 101.053 C 156.434 101.043 157.709 101.046 158.984 101.051 C 159.534 101.043 159.534 101.043 160.095 101.034 C 163.184 101.069 165.69 102.067 168.037 104.092 C 168.255 104.364 168.472 104.637 168.697 104.918 C 168.922 105.189 169.148 105.46 169.38 105.74 C 170.951 108.147 171.097 110.38 171.086 113.193 C 171.088 113.604 171.09 114.015 171.092 114.439 C 171.099 115.815 171.098 117.192 171.097 118.569 C 171.1 119.556 171.103 120.544 171.107 121.531 C 171.116 124.214 171.118 126.896 171.118 129.579 C 171.119 131.256 171.121 132.933 171.124 134.61 C 171.133 140.464 171.137 146.318 171.136 152.171 C 171.136 157.622 171.146 163.073 171.161 168.524 C 171.174 173.208 171.179 177.891 171.179 182.574 C 171.178 185.37 171.181 188.165 171.192 190.961 C 171.201 193.593 171.201 196.224 171.194 198.856 C 171.193 199.819 171.195 200.782 171.201 201.745 C 171.238 208.194 171.131 213.621 166.502 218.594 C 160.203 224.473 153.797 224.197 145.632 224.153 C 144.452 224.155 143.271 224.159 142.091 224.163 C 139.229 224.172 136.367 224.168 133.505 224.159 C 131.177 224.153 128.85 224.151 126.522 224.152 C 126.19 224.153 125.857 224.153 125.515 224.153 C 124.839 224.154 124.164 224.154 123.489 224.155 C 117.528 224.159 111.568 224.151 105.608 224.136 C 99.835 224.122 94.062 224.119 88.289 224.126 C 81.99 224.134 75.691 224.136 69.392 224.128 C 68.719 224.127 68.046 224.126 67.374 224.125 C 67.043 224.125 66.712 224.124 66.371 224.124 C 64.048 224.121 61.725 224.123 59.402 224.126 C 56.272 224.13 53.141 224.124 50.011 224.11 C 48.864 224.107 47.718 224.107 46.571 224.11 C 45.002 224.115 43.432 224.107 41.863 224.096 C 41.413 224.1 40.964 224.104 40.5 224.108 C 35.601 224.046 30.933 222.434 27.4 218.962 C 23.392 214.372 22.29 209.427 22.328 203.442 C 22.326 202.941 22.323 202.439 22.32 201.922 C 22.313 200.256 22.317 198.591 22.32 196.925 C 22.318 195.725 22.314 194.525 22.31 193.324 C 22.302 190.412 22.301 187.499 22.304 184.587 C 22.306 182.218 22.305 179.85 22.303 177.481 C 22.302 177.143 22.302 176.805 22.302 176.457 C 22.301 175.77 22.3 175.084 22.299 174.397 C 22.293 167.968 22.295 161.539 22.301 155.111 C 22.306 149.237 22.299 143.363 22.288 137.489 C 22.276 131.447 22.271 125.405 22.274 119.363 C 22.276 115.975 22.275 112.587 22.266 109.199 C 22.258 106.014 22.261 102.829 22.27 99.644 C 22.272 98.477 22.27 97.309 22.265 96.142 C 22.259 94.546 22.264 92.95 22.273 91.353 C 22.268 90.894 22.264 90.435 22.259 89.962 C 22.297 86.493 22.945 83.029 25.279 80.332 C 27.161 78.562 29.22 77.63 31.644 76.826 C 32.012 76.697 32.379 76.568 32.757 76.435 C 33.991 76.004 35.227 75.584 36.464 75.163 C 37.363 74.851 38.262 74.537 39.161 74.223 C 41.149 73.529 43.138 72.839 45.127 72.15 C 48.594 70.948 52.051 69.72 55.507 68.489 C 56.126 68.269 56.746 68.048 57.365 67.828 C 58.309 67.491 59.253 67.155 60.197 66.819 C 71.704 62.72 83.226 58.664 94.755 54.625 C 105.032 51.024 115.3 47.398 125.563 43.756 C 129.214 42.461 132.867 41.168 136.52 39.877 C 138.145 39.303 139.769 38.728 141.394 38.153 C 142.436 37.785 143.478 37.417 144.519 37.049 C 145.958 36.541 147.397 36.032 148.836 35.523 C 149.261 35.372 149.687 35.222 150.125 35.068 C 151.691 34.513 153.242 33.96 154.773 33.314 C 156.435 32.698 157.556 32.926 159.236 33.415 Z M 134.242 46.968 C 133.681 47.172 133.136 47.37 132.591 47.567 C 131.974 47.789 131.375 48.005 130.777 48.22 C 129.837 48.57 128.898 48.919 127.955 49.258 C 125.178 50.249 122.462 51.033 120.174 52.946 C 122.196 54.351 124.221 55.749 126.255 57.136 C 127.087 57.702 127.919 58.268 128.749 58.836 C 129.965 59.682 131.18 60.527 132.405 61.359 C 132.802 61.628 133.188 61.888 133.573 62.149 C 134.624 62.891 135.67 63.597 136.778 64.249 C 138.456 64.965 138.456 64.965 142.903 63.673 C 143.517 63.465 144.112 63.263 144.708 63.061 C 145.701 62.727 146.695 62.392 147.686 62.054 C 148.373 61.819 149.06 61.586 149.748 61.353 C 151.773 60.67 153.796 59.984 155.818 59.294 C 155.818 58.962 155.818 58.64 155.818 58.317 C 154.987 57.698 154.149 57.085 153.288 56.507 C 152.73 56.141 152.73 56.141 152.183 55.782 C 151.418 55.275 150.652 54.769 149.887 54.263 C 148.672 53.469 147.459 52.673 146.251 51.868 C 145.466 51.344 144.679 50.822 143.89 50.303 C 143.503 50.049 143.128 49.803 142.753 49.557 C 142.049 49.085 141.341 48.619 140.63 48.158 C 138.427 46.834 136.798 46.361 134.242 46.968 Z M 95.08 61.128 C 94.5 61.332 93.937 61.53 93.374 61.728 C 92.748 61.944 92.123 62.162 91.498 62.38 C 90.528 62.73 89.559 63.08 88.586 63.418 C 85.768 64.39 82.939 65.156 80.623 67.106 C 82.168 68.111 83.715 69.11 85.268 70.103 C 85.998 70.569 86.729 71.035 87.459 71.501 C 88.792 72.356 90.126 73.21 91.464 74.056 C 92.154 74.492 92.154 74.492 92.83 74.919 C 93.281 75.209 93.718 75.49 94.155 75.771 C 94.587 76.041 95.005 76.304 95.424 76.567 C 95.991 76.927 95.991 76.927 96.548 77.28 C 99.021 78.486 100.828 78.442 103.431 77.573 C 103.779 77.45 104.116 77.33 104.454 77.21 C 105.553 76.837 106.652 76.462 107.748 76.079 C 108.509 75.813 109.27 75.549 110.033 75.287 C 112.277 74.522 114.518 73.748 116.756 72.966 C 116.756 72.634 116.756 72.311 116.756 71.989 C 116.409 71.765 116.073 71.548 115.736 71.33 C 114.436 70.593 113.204 69.793 111.967 68.956 C 111.373 68.554 110.777 68.154 110.181 67.755 C 109.219 67.112 108.257 66.469 107.295 65.825 C 106.339 65.175 105.383 64.525 104.42 63.884 C 104.107 63.676 103.804 63.474 103.5 63.273 C 102.938 62.886 102.373 62.505 101.804 62.131 C 99.441 60.865 97.703 60.543 95.08 61.128 Z M 52.883 75.862 C 52.54 75.998 52.208 76.13 51.876 76.262 C 49.171 77.305 46.554 78.419 44.002 79.802 C 45.267 81.125 46.649 82.27 48.061 83.433 C 49.464 84.59 50.865 85.748 52.237 86.941 C 52.552 87.218 52.857 87.487 53.163 87.755 C 53.772 88.288 54.38 88.82 54.988 89.354 C 56.026 90.281 57.063 91.149 58.162 92.009 C 59.776 92.743 59.776 92.743 62.694 91.758 C 63.032 91.638 63.361 91.521 63.69 91.404 C 64.391 91.163 65.092 90.921 65.793 90.678 C 66.894 90.289 67.995 89.901 69.098 89.521 C 69.82 89.274 70.542 89.025 71.263 88.774 C 71.614 88.651 71.955 88.532 72.296 88.413 C 73.979 87.833 75.431 87.436 76.717 86.149 C 72.67 83.486 68.601 80.856 64.483 78.305 C 63.834 77.905 63.834 77.905 63.198 77.513 C 62.031 76.775 60.865 76.059 59.659 75.387 C 57.233 74.261 55.288 74.952 52.883 75.862 Z M 33.748 90.544 C 33.597 92.09 33.54 93.057 34.236 94.45 C 35.63 95.843 36.415 96.366 38.387 96.647 C 40.443 96.354 41.23 96.074 42.537 94.45 C 42.768 92.959 42.739 91.549 42.537 90.056 C 41.869 88.72 41.869 88.72 39.607 87.614 C 36.545 87.374 35.456 87.983 33.748 90.544 Z M 34.002 111.021 C 33.866 112.956 34.124 113.817 35.243 115.446 C 36.678 116.423 36.678 116.423 38.478 116.606 C 40.378 116.391 40.789 116.226 42.11 114.866 C 43.18 113.261 43.236 112.454 43.025 110.563 C 42.306 109.124 41.44 108.51 40.096 107.634 C 37.175 107.164 34.787 107.856 34.002 111.021 Z M 53.768 111.052 C 53.737 112.822 53.737 112.822 54.256 114.47 C 55.56 116.011 56.677 116.56 58.65 116.728 C 60.358 116.637 60.358 116.637 62.068 115.141 C 63.112 113.38 63.318 112.564 63.045 110.563 C 62.325 109.124 61.46 108.51 60.115 107.634 C 56.581 107.334 55.454 107.911 53.768 111.052 Z M 39.035 124.394 C 38.773 124.62 38.519 124.84 38.265 125.059 C 37.868 125.386 37.868 125.386 37.479 125.706 C 34.889 128.845 34.499 131.543 34.476 135.515 C 34.486 136.503 34.495 137.491 34.495 138.479 C 34.49 140.311 34.492 142.142 34.503 143.973 C 34.516 145.918 34.52 147.862 34.521 149.807 C 34.523 153.065 34.53 156.324 34.545 159.582 C 34.564 163.794 34.577 168.007 34.582 172.219 C 34.586 175.872 34.593 179.524 34.602 183.177 C 34.604 183.954 34.606 184.732 34.608 185.509 C 34.613 187.765 34.618 190.021 34.629 192.277 C 34.632 192.963 34.635 193.65 34.638 194.337 C 34.64 194.989 34.641 195.642 34.642 196.294 C 34.646 196.9 34.649 197.488 34.653 198.076 C 34.667 201.434 35.597 203.645 37.654 206.267 C 41.115 209.645 41.115 209.645 51.441 209.578 C 52.472 209.571 53.503 209.569 54.534 209.572 C 57.349 209.587 60.164 209.591 62.979 209.581 C 65.973 209.569 68.967 209.568 71.961 209.571 C 76.979 209.577 81.996 209.573 87.014 209.557 C 92.85 209.539 98.686 209.53 104.523 209.541 C 110.186 209.552 115.849 209.555 121.512 209.545 C 123.912 209.541 126.312 209.537 128.713 209.54 C 131.584 209.546 134.455 209.548 137.326 209.535 C 138.387 209.529 139.447 209.524 140.508 209.52 C 146.361 209.546 151.857 210.105 156.59 206.102 C 159.6 202.966 159.893 198.77 159.923 194.651 C 159.919 193.712 159.914 192.774 159.917 191.835 C 159.926 190.092 159.929 188.349 159.924 186.606 C 159.919 184.753 159.92 182.901 159.922 181.048 C 159.926 177.939 159.925 174.831 159.918 171.722 C 159.91 168.111 159.908 164.501 159.916 160.89 C 159.923 157.76 159.926 154.629 159.923 151.499 C 159.921 149.634 159.918 147.77 159.921 145.906 C 159.926 144.13 159.929 142.355 159.922 140.579 C 159.919 139.922 159.916 139.264 159.914 138.607 C 159.94 133.373 159.76 129.086 155.906 125.161 C 152.244 121.975 152.244 121.975 140.722 122.03 C 139.719 122.035 138.716 122.036 137.713 122.034 C 134.972 122.025 132.231 122.023 129.49 122.031 C 126.577 122.039 123.663 122.04 120.75 122.039 C 115.867 122.036 110.985 122.039 106.102 122.05 C 100.422 122.063 94.743 122.07 89.063 122.064 C 83.55 122.059 78.038 122.058 72.526 122.065 C 70.19 122.068 67.854 122.071 65.518 122.069 C 62.724 122.067 59.929 122.066 57.135 122.075 C 56.104 122.079 55.073 122.082 54.042 122.085 C 52.609 122.081 51.176 122.078 49.743 122.085 C 49.085 122.089 49.085 122.089 48.44 122.093 C 44.917 122.067 42.114 122.517 39.035 124.394 Z" fill="oklch(0.68 0.14 320)" id="klappe"/><path d="M 197.322 57.341 C 241.474 57.341 241.474 57.341 252.864 67.686 C 259.874 75.27 263.185 85.376 262.901 95.591 C 262.436 104.627 259.604 113.064 253.475 119.841 C 253.216 120.138 252.957 120.436 252.691 120.743 C 246.204 127.754 236.753 130.415 227.596 131.56 C 217.606 131.56 207.615 131.56 197.322 131.56 C 197.322 107.067 197.322 82.575 197.322 57.341 Z M 212.459 117.399 C 217.108 117.399 221.619 117.399 226.131 117.399 C 232.103 116.546 237.106 114.813 241.39 110.411 C 241.68 109.965 241.962 109.532 242.244 109.099 C 246.339 103.17 247.147 97.215 246.74 90.149 C 246.28 85.283 243.768 80.002 240.045 76.796 C 239.631 76.49 239.228 76.193 238.826 75.895 C 233.001 71.501 233.001 71.501 212.459 71.501 C 212.459 87.106 212.459 102.253 212.459 117.399 Z" id="D" fill="oklch(0.78 0.18 100)"/><path d="M 316.951 60.759 C 323.679 65.952 327.206 73.456 328.67 81.755 C 330.402 95.431 330.46 111.789 321.834 123.259 C 317.815 128.31 311.557 131.234 305.233 132.048 C 299.208 132.545 293.245 132.619 287.654 130.095 C 286.943 129.776 286.943 129.776 286.218 129.45 C 279.456 126.083 275.565 120.213 273.036 113.236 C 271.251 107.4 270.47 101.421 270.503 95.335 C 270.506 94.881 270.508 94.428 270.511 93.96 C 270.606 83.034 272.16 71.885 280.166 63.742 C 289.605 55.219 306.213 52.861 316.951 60.759 Z M 291.164 73.454 C 286.841 78.256 286.255 84.841 286.1 91.011 C 285.981 98.905 285.331 108.557 291.236 114.695 C 291.647 115.074 291.647 115.074 292.049 115.446 C 293.842 117.17 295.315 117.812 297.805 118.105 C 302.026 118.3 305.375 118 308.595 115.107 C 313.839 109.676 314.052 102.382 314.134 95.236 C 314.139 94.315 314.139 94.315 314.144 93.413 C 314.162 91.149 314.149 88.898 314.022 86.638 C 313.351 81.069 312.179 75.728 307.674 71.989 C 302.27 68.774 295.91 69.252 291.164 73.454 Z" id="0" fill="oklch(0.78 0.18 100)"/><path d="M 333.553 57.341 C 349.183 57.341 364.813 57.341 380.916 57.341 C 380.916 72.989 380.916 72.989 378.353 77.818 C 378.067 78.407 377.785 78.998 377.505 79.591 C 376.885 80.898 376.253 82.198 375.613 83.495 C 373.792 87.228 372.158 91.049 370.486 94.85 C 369.453 97.194 368.408 99.534 367.364 101.874 C 365.624 105.782 363.891 109.693 362.165 113.608 C 361.952 114.091 361.739 114.574 361.519 115.071 C 360.498 117.388 359.477 119.705 358.457 122.023 C 358.089 122.857 357.722 123.69 357.355 124.523 C 357.19 124.898 357.026 125.272 356.857 125.658 C 356.625 126.183 356.625 126.183 356.388 126.719 C 356.256 127.019 356.124 127.319 355.988 127.628 C 355.376 128.953 354.713 130.254 354.061 131.56 C 348.904 131.56 343.748 131.56 338.436 131.56 C 338.774 129.865 339.017 128.74 339.685 127.236 C 339.841 126.882 339.997 126.528 340.157 126.163 C 340.327 125.784 340.496 125.406 340.671 125.015 C 340.848 124.614 341.025 124.213 341.208 123.8 C 341.787 122.49 342.37 121.18 342.952 119.871 C 343.559 118.501 344.165 117.13 344.77 115.758 C 345.176 114.84 345.582 113.921 345.989 113.003 C 347.682 109.177 349.35 105.341 351.009 101.5 C 351.512 100.338 352.015 99.176 352.518 98.015 C 353.323 96.156 354.127 94.296 354.931 92.437 C 355.682 90.697 356.437 88.959 357.192 87.221 C 357.477 86.565 357.761 85.909 358.044 85.252 C 360.135 80.407 362.437 75.744 364.803 71.013 C 354.49 71.013 344.178 71.013 333.553 71.013 C 333.553 66.501 333.553 61.989 333.553 57.341 Z" id="7" fill="oklch(0.78 0.18 100)"/><path d="M 84.041 138.884 C 85.594 139.553 86.983 140.444 88.405 141.356 C 88.827 141.618 89.25 141.88 89.685 142.15 C 91.063 143.007 92.435 143.875 93.807 144.743 C 94.739 145.326 95.672 145.907 96.605 146.488 C 98.55 147.7 100.491 148.916 102.432 150.135 C 104.598 151.493 106.773 152.835 108.955 154.167 C 109.24 154.342 109.526 154.516 109.82 154.696 C 111.198 155.539 112.578 156.379 113.959 157.217 C 121.448 161.792 121.448 161.792 123.104 164.274 C 123.049 167.633 123.049 167.633 121.726 169.302 C 119.572 171.312 116.919 172.715 114.406 174.223 C 113.547 174.744 112.688 175.266 111.83 175.788 C 111.244 176.145 110.657 176.501 110.07 176.857 C 107.205 178.595 104.366 180.375 101.528 182.158 C 100.57 182.755 99.612 183.352 98.653 183.949 C 96.649 185.198 94.657 186.463 92.668 187.737 C 91.664 188.37 90.66 189.002 89.656 189.634 C 89.199 189.932 88.741 190.23 88.269 190.537 C 85.561 192.227 83.825 193.01 80.623 192.595 C 78.735 191.774 77.979 191.054 77.205 189.177 C 77.078 188.212 77.078 188.212 77.071 187.182 C 77.066 186.789 77.062 186.396 77.057 185.991 C 77.056 185.565 77.056 185.138 77.056 184.698 C 77.051 184.246 77.047 183.793 77.043 183.326 C 77.031 181.829 77.027 180.332 77.024 178.835 C 77.02 177.794 77.015 176.753 77.011 175.712 C 77.003 173.529 76.999 171.346 76.997 169.163 C 76.995 166.367 76.976 163.572 76.954 160.776 C 76.94 158.626 76.936 156.475 76.935 154.325 C 76.933 153.294 76.927 152.263 76.917 151.233 C 76.904 149.79 76.906 148.349 76.913 146.906 C 76.905 146.482 76.898 146.057 76.891 145.619 C 76.915 143.549 77.058 142.221 78.383 140.58 C 80.309 138.739 81.381 138.628 84.041 138.884 Z" id="play" fill="oklch(0.65 0.1 200)"/><path d="M 261.775 147.673 C 265.432 150.145 267.816 153.325 268.907 157.627 C 269.703 162.898 269.353 167.851 266.319 172.333 C 263.739 175.502 260.727 177.156 256.893 178.435 C 251.442 178.837 247.046 178.433 242.61 175.017 C 239.363 171.973 237.595 167.689 237.245 163.307 C 237.119 157.843 238.493 153.666 242.244 149.626 C 247.558 144.721 255.521 144.308 261.775 147.673 Z M 250.244 151.862 C 247.254 153.327 245.385 155.179 244.407 158.348 C 243.638 162.174 244.068 166.001 246.212 169.279 C 248.097 171.083 249.949 172.347 252.573 172.728 C 255.746 172.822 257.711 171.599 260.009 169.558 C 262.352 166.92 262.425 163.534 262.411 160.162 C 262.043 157.007 260.625 154.809 258.131 152.849 C 255.935 151.399 254.01 150.692 250.244 151.862 Z" fill="oklch(0.78 0.18 100)" id="o" /><path d="M 271.053 191.618 C 289.526 191.618 289.526 191.618 294.49 196.013 C 298.553 200.946 298.81 205.486 298.397 211.638 C 297.883 215.367 295.793 217.957 293.025 220.427 C 286.453 224.85 278.819 223.356 271.053 223.356 C 271.053 212.883 271.053 202.409 271.053 191.618 Z M 277.889 217.497 C 282.354 217.497 284.852 218.008 288.448 215.696 C 291.175 213.041 291.693 211.234 291.774 207.457 C 291.771 204.33 291.278 202.113 289.058 199.827 C 285.35 197.489 282.429 197.477 277.889 197.477 C 277.889 204.284 277.889 210.891 277.889 217.497 Z" fill="oklch(0.68 0.14 320)" id="D" /><path d="M 197.322 146.208 C 200.384 146.208 203.445 146.208 206.6 146.208 C 206.834 146.824 207.068 147.44 207.309 148.075 C 208.176 150.356 209.043 152.636 209.911 154.916 C 210.287 155.904 210.662 156.892 211.037 157.88 C 211.576 159.298 212.116 160.716 212.656 162.134 C 212.824 162.578 212.992 163.021 213.166 163.478 C 213.322 163.889 213.478 164.299 213.64 164.722 C 213.777 165.084 213.915 165.447 214.057 165.82 C 214.407 166.741 214.407 166.741 214.9 167.692 C 216.892 163.353 218.629 158.913 220.394 154.478 C 220.714 153.675 221.034 152.872 221.355 152.068 C 222.134 150.115 222.912 148.162 223.69 146.208 C 226.59 146.208 229.49 146.208 232.479 146.208 C 232.479 156.682 232.479 167.155 232.479 177.946 C 230.384 177.946 228.289 177.946 226.131 177.946 C 226.061 172.289 226.037 157.52 226.131 155.485 C 227.115 152.189 230.001 146.188 224.36 159.836 C 222.25 165.247 220.533 171.858 218.318 177.946 C 216.224 177.946 214.129 177.946 211.971 177.946 C 210.435 174.174 209.002 170.368 207.602 166.544 C 207.237 165.547 206.87 164.551 206.503 163.555 C 206.269 162.916 206.035 162.277 205.801 161.638 C 205.704 161.375 203.615 155.908 203.576 155.406 C 203.574 155.247 203.625 159.242 203.688 161.189 C 203.688 166.711 204.158 172.265 204.158 177.946 C 201.902 177.946 199.647 177.946 197.322 177.946 C 197.322 167.473 197.322 156.999 197.322 146.208 Z" fill="oklch(0.78 0.18 100)" id="M" /><path d="M 303.768 191.618 C 306.346 191.588 308.924 191.558 311.58 191.527 C 312.386 191.513 313.191 191.5 314.022 191.486 C 321.814 191.41 321.814 191.41 325.191 194.273 C 326.993 196.447 327.395 197.992 327.331 200.773 C 327.102 202.769 326.242 204.199 324.977 205.717 C 324.275 206.267 324.275 206.267 323.299 206.267 C 323.299 206.589 323.299 206.911 323.299 207.243 C 323.661 207.344 324.024 207.445 324.398 207.548 C 326.152 208.426 327.057 209.317 327.693 211.149 C 328.05 213.948 328.222 216.897 326.931 219.481 C 325.164 221.61 323.129 222.865 320.369 223.356 C 319.091 223.397 317.825 223.413 316.547 223.404 C 316.06 223.403 316.06 223.403 315.564 223.403 C 314.358 223.4 313.152 223.393 311.946 223.387 C 309.247 223.377 306.548 223.367 303.768 223.356 C 303.768 212.883 303.768 202.409 303.768 191.618 Z M 310.115 204.313 C 311.067 204.341 312.019 204.368 312.971 204.385 C 313.369 204.392 313.757 204.398 314.144 204.405 C 316.152 204.47 317.82 204.622 319.633 203.682 C 320.369 202.849 320.369 202.849 320.796 201.14 C 320.858 199.431 320.858 199.431 319.881 197.966 C 317.221 196.843 317.221 196.843 310.115 196.989 C 310.115 199.479 310.115 201.896 310.115 204.313 Z M 310.115 217.985 C 311.412 217.996 312.671 218.006 313.93 218.016 C 316.366 218.043 318.39 218.214 320.461 216.734 C 321.423 215.44 321.482 215.051 321.498 213.499 C 321.346 211.638 321.346 211.638 320.858 211.149 C 318.832 209.912 317.31 209.525 314.994 209.553 C 314.41 209.573 314.41 209.573 313.838 209.593 C 312.573 209.624 311.344 209.654 310.115 209.685 C 310.115 212.507 310.115 215.246 310.115 217.985 Z" id="B" fill="oklch(0.68 0.14 320)"/><path d="M 370.845 147.064 C 372.245 148.137 372.882 148.975 373.592 150.602 C 373.893 152.956 373.917 155.113 373.073 157.347 C 371.972 158.59 370.786 159.646 369.501 160.694 C 368.652 161.37 368.652 161.37 367.733 162.321 C 369.022 163.61 370.311 164.899 371.639 166.227 C 372.776 164.711 373.337 163.888 373.928 162.199 C 374.139 161.595 374.351 160.991 374.568 160.368 C 376.663 160.368 378.758 160.368 380.916 160.368 C 380.486 162.52 379.988 163.833 378.993 165.739 C 378.076 167.506 377.23 169.249 376.522 171.11 C 377.156 171.789 377.156 171.789 377.803 172.482 C 378.353 173.072 378.902 173.663 379.451 174.254 C 379.731 174.552 380.01 174.851 380.298 175.159 C 382.381 177.403 382.381 177.403 382.381 177.946 C 381.058 178.013 379.738 178.061 378.414 178.099 C 378.042 178.119 377.671 178.14 377.288 178.161 C 375.209 178.206 373.974 178.074 372.344 176.716 C 371.95 176.316 371.556 175.917 371.15 175.505 C 370.891 175.675 370.632 175.846 370.365 176.022 C 369.847 176.355 369.847 176.355 369.319 176.695 C 368.98 176.916 368.64 177.137 368.289 177.364 C 365.709 178.8 362.798 178.718 359.92 178.434 C 357.018 177.58 355.285 175.99 353.572 173.552 C 352.665 170.83 352.714 167.848 353.603 165.129 C 354.868 163.333 356.359 161.857 357.967 160.368 C 357.791 160.113 357.614 159.858 357.433 159.596 C 355.577 156.652 354.792 154.071 355.525 150.602 C 356.663 148.4 358.481 146.771 360.841 145.933 C 364.279 145.221 367.781 145.219 370.845 147.064 Z M 361.873 152.067 C 361.69 153.532 361.69 153.532 361.873 154.997 C 362.853 156.467 363.259 156.77 364.803 157.438 C 365.301 157.096 365.784 156.764 366.268 156.431 C 367.669 155.281 367.719 155.109 367.946 153.166 C 367.733 151.579 367.733 151.579 367.244 151.091 C 364.992 150.581 363.43 150.136 361.873 152.067 Z M 358.943 167.692 C 358.882 169.462 358.882 169.462 359.432 171.11 C 360.47 172.338 361.215 172.946 362.817 173.231 C 364.989 173.33 366.486 173.008 368.221 171.599 C 368.221 170.622 368.221 170.622 367.221 169.493 C 366.773 169.047 366.337 168.614 365.901 168.181 C 364.477 166.748 363.268 165.537 361.385 164.763 C 360.408 165.739 359.643 166.522 358.943 167.692 Z" id="and" fill="oklch(0.65 0.1 200)"/><path d="M 318.904 146.208 C 325.511 146.208 332.117 146.208 338.924 146.208 C 338.924 148.142 338.924 150.075 338.924 152.067 C 334.412 152.067 329.9 152.067 325.252 152.067 C 325.252 154.323 325.252 156.579 325.252 158.903 C 329.28 158.903 333.309 158.903 337.459 158.903 C 337.459 160.837 337.459 162.77 337.459 164.763 C 333.431 164.763 329.402 164.763 325.252 164.763 C 325.252 167.18 325.252 169.597 325.252 172.087 C 329.764 172.087 334.275 172.087 338.924 172.087 C 338.924 174.02 338.924 175.954 338.924 177.946 C 332.317 177.946 325.711 177.946 318.904 177.946 C 318.904 167.473 318.904 156.999 318.904 146.208 Z" fill="oklch(0.78 0.18 100)" id="E" /><path d="M 226.131 191.618 C 228.548 191.618 230.965 191.618 233.455 191.618 C 236.033 198.869 238.611 206.12 241.268 213.591 C 241.986 212.585 243.069 209.728 243.385 208.935 C 243.553 208.515 243.67 208.063 243.818 207.621 C 243.967 207.18 244.116 206.739 244.27 206.284 C 244.746 204.875 245.22 203.465 245.693 202.055 C 246.168 200.642 246.643 199.228 247.121 197.816 C 247.418 196.936 247.714 196.057 248.008 195.176 C 248.141 194.78 248.275 194.384 248.413 193.976 C 248.53 193.626 248.648 193.276 248.768 192.915 C 249.08 192.106 249.08 192.106 249.568 191.618 C 250.717 191.583 251.867 191.577 253.017 191.588 C 253.647 191.592 254.277 191.596 254.926 191.601 C 255.414 191.607 255.902 191.612 256.404 191.618 C 256.096 193.327 255.661 194.915 255.085 196.553 C 254.83 197.279 254.83 197.279 254.571 198.02 C 254.295 198.798 254.295 198.798 254.014 199.591 C 253.825 200.13 253.635 200.669 253.439 201.224 C 253.038 202.363 252.635 203.503 252.231 204.642 C 251.618 206.375 251.008 208.109 250.399 209.843 C 250.007 210.952 249.615 212.062 249.223 213.171 C 249.043 213.686 248.862 214.2 248.676 214.73 C 247.63 217.672 246.48 220.52 245.174 223.356 C 242.596 223.356 240.018 223.356 237.361 223.356 C 237.143 222.754 236.924 222.152 236.698 221.531 C 235.87 219.25 235.041 216.968 234.211 214.687 C 233.856 213.708 233.5 212.73 233.145 211.751 C 232.627 210.326 232.109 208.902 231.592 207.478 C 231.337 206.775 231.337 206.775 231.076 206.058 C 230.235 203.745 229.388 201.435 228.529 199.129 C 228.369 198.699 228.209 198.27 228.045 197.828 C 227.744 197.019 227.441 196.211 227.137 195.403 C 226.131 192.703 226.131 192.703 226.131 191.618 Z" fill="oklch(0.78 0.18 100)" id="v2" /><path d="M 270.076 146.208 C 272.493 146.208 274.91 146.208 277.4 146.208 C 279.979 153.62 282.557 161.032 285.213 168.669 C 286.377 165.988 286.377 165.988 287.374 163.273 C 287.548 162.752 287.548 162.752 287.725 162.221 C 287.844 161.859 287.963 161.497 288.085 161.123 C 288.212 160.742 288.339 160.36 288.47 159.966 C 288.871 158.758 289.27 157.549 289.669 156.34 C 289.94 155.521 290.211 154.702 290.483 153.883 C 290.979 152.389 291.473 150.894 291.967 149.398 C 292.319 148.335 292.671 147.271 293.025 146.208 C 295.442 146.208 297.859 146.208 300.35 146.208 C 299.258 149.956 298.027 153.637 296.73 157.318 C 296.426 158.184 296.426 158.184 296.115 159.067 C 295.582 160.585 295.047 162.103 294.512 163.62 C 294.074 164.866 293.637 166.111 293.201 167.357 C 292.679 168.843 292.156 170.329 291.633 171.814 C 291.437 172.373 291.241 172.932 291.04 173.508 C 290.859 174.02 290.678 174.532 290.491 175.06 C 290.252 175.738 290.252 175.738 290.009 176.431 C 289.608 177.458 289.608 177.458 289.119 177.946 C 287.803 177.982 286.499 177.991 285.182 177.977 C 284.812 177.975 284.442 177.972 284.06 177.97 C 283.142 177.964 282.224 177.956 281.307 177.946 C 278.697 171.102 276.171 164.228 273.689 157.336 C 273.375 156.467 273.062 155.599 272.748 154.73 C 272.303 153.498 271.86 152.266 271.417 151.034 C 271.282 150.659 271.146 150.285 271.006 149.899 C 270.076 147.296 270.076 147.296 270.076 146.208 Z" fill="oklch(0.78 0.18 100)" id="v1" /><path d="M 197.322 191.618 C 205.54 191.618 213.758 191.618 222.225 191.618 C 222.225 193.552 222.225 195.485 222.225 197.477 C 219.163 197.477 216.102 197.477 212.947 197.477 C 212.947 206.018 212.947 214.558 212.947 223.356 C 210.853 223.356 208.758 223.356 206.6 223.356 C 206.6 214.816 206.6 206.276 206.6 197.477 C 203.538 197.477 200.477 197.477 197.322 197.477 C 197.322 195.544 197.322 193.61 197.322 191.618 Z" fill="oklch(0.78 0.18 100)" id="T" /><path d="M 305.233 146.208 C 307.327 146.208 309.422 146.208 311.58 146.208 C 311.58 156.682 311.58 167.155 311.58 177.946 C 309.485 177.946 307.391 177.946 305.233 177.946 C 305.233 167.473 305.233 156.999 305.233 146.208 Z" fill="oklch(0.78 0.18 100)" id="i" /><path d="M 324.764 164.763 C 324.925 164.763 325.086 164.763 325.252 164.763 C 325.252 167.18 325.252 169.597 325.252 172.087 C 329.764 172.087 334.275 172.087 338.924 172.087 C 338.924 174.02 338.924 175.954 338.924 177.946 C 337.474 177.946 336.024 177.946 334.529 177.946 C 334.529 177.785 334.529 177.624 334.529 177.458 C 335.657 177.458 336.785 177.458 337.947 177.458 C 337.947 176.008 337.947 174.558 337.947 173.063 C 337.374 173.067 337.374 173.067 336.79 173.071 C 335.07 173.081 333.35 173.088 331.63 173.094 C 331.029 173.098 330.427 173.102 329.808 173.106 C 329.237 173.108 328.665 173.109 328.077 173.111 C 327.283 173.115 327.283 173.115 326.473 173.119 C 325.252 173.063 325.252 173.063 324.764 172.575 C 324.728 171.258 324.719 169.955 324.733 168.638 C 324.735 168.268 324.738 167.898 324.74 167.516 C 324.746 166.598 324.754 165.68 324.764 164.763 Z" fill="oklch(0.78 0.18 100)"/><path d="M 339.9 126.677 C 340.223 126.677 340.545 126.677 340.877 126.677 C 339.962 129.484 339.962 129.484 339.412 130.583 C 344.246 130.583 349.08 130.583 354.061 130.583 C 354.222 130.261 354.383 129.938 354.549 129.606 C 354.388 130.251 354.227 130.895 354.061 131.56 C 348.904 131.56 343.748 131.56 338.436 131.56 C 338.8 129.738 339.184 128.35 339.9 126.677 Z" fill="oklch(0.78 0.18 100)"/><path d="M 363.338 73.942 C 363.66 74.587 363.983 75.231 364.315 75.895 C 363.831 76.621 363.831 76.621 363.338 77.36 C 363.016 77.36 362.693 77.36 362.361 77.36 C 362.22 77.824 362.079 78.287 361.934 78.764 C 361.385 80.29 361.385 80.29 360.408 81.267 C 360.703 79.387 361.271 77.916 362.148 76.231 C 362.37 75.8 362.592 75.369 362.821 74.925 C 363.077 74.438 363.077 74.438 363.338 73.942 Z" fill="oklch(0.78 0.18 100)"/><path d="M 294.979 56.364 C 295.945 56.364 296.912 56.364 297.908 56.364 C 297.908 56.686 297.908 57.009 297.908 57.341 C 298.714 57.341 299.52 57.341 300.35 57.341 C 300.35 57.502 300.35 57.663 300.35 57.829 C 298.577 57.829 296.805 57.829 294.979 57.829 C 294.979 57.346 294.979 56.862 294.979 56.364 Z" fill="oklch(0.78 0.18 100)"/></svg>